<?xml version="1.0" encoding="utf-8"?>
<!-- Generator: Adobe Illustrator 20.0.0, SVG Export Plug-In . SVG Version: 6.00 Build 0)  -->
<svg version="1.1" id="Ebene_1" xmlns="http://www.w3.org/2000/svg" xmlns:xlink="http://www.w3.org/1999/xlink" x="0px" y="0px"
	 viewBox="0 0 36 28.3" style="enable-background:new 0 0 36 28.3;" xml:space="preserve">
<style type="text/css">
	.st0{fill:#FFFFFF;}
</style>
<symbol  id="BR" viewBox="-18 -14.2 36 28.5">
	<path class="st0" d="M8.1-0.3c3.2,1.1,5.5,3.7,5.5,7.5c0,1-0.5,3.3-2.2,4.8c-1.2,1-2.8,2.1-8.2,2.3c-1.2,0-4.6-0.2-4.6-0.2v-0.2
		c1-0.7,2-1.9,2.5-3.3c0.5,0,1.3,0.1,2.1,0c2.2-0.1,3.1-0.5,4.1-1.3s1.5-2.1,1.5-3.3c0-1.6-0.8-3.3-3.1-4.3c-1.9-0.8-4.2-1-4.2-1
		V0.1c0,0,1.4-0.7,2.8-2.5c1.2-1.6,8.1-11.8,8.1-11.8H18C18-14.1,8.8-1.2,8.1-0.3z M-4.5,1.1c2.2,1.3,3.6,3.2,3.6,6.1
		c0,3-1.8,7.1-9.4,7.1c-3.7,0-7.7-0.1-7.7-0.1v-28.2h6.5c8.2,0,12.6,3,12.6,8.8C1-1.9-1.1,0.4-4.5,1.1z M-10.2-10.1h-3.2v20.8h2.3
		c3.6,0,5.6-1.8,5.6-4.4c0-1.5-0.4-3-2-4.1c-1.3-0.9-3.1-1.2-3.1-1.2V0.3c0,0,2.5-0.4,3.7-1c2.3-1.1,3-2.8,3.1-5
		C-3.7-9.2-7.1-10.2-10.2-10.1z"/>
</symbol>
<use xlink:href="#BR"  width="36" height="28.5" x="-18" y="-14.2" transform="matrix(0.993 0 0 -0.993 18 14.22)" style="overflow:visible;"/>
</svg>
